<svg width="30" height="25" viewBox="0 0 30 25" fill="none" xmlns="http://www.w3.org/2000/svg">
<path d="M29.4316 8.19526C29.6602 7.9949 30 8.18233 30 8.49903V21.7161C30 23.4289 28.7402 24.8185 27.1875 24.8185H2.8125C1.25977 24.8185 0 23.4289 0 21.7161V8.50549C0 8.18233 0.333984 8.00136 0.568359 8.20172C1.88086 9.32631 3.62109 10.7547 9.59766 15.5438C10.834 16.5392 12.9199 18.6332 15 18.6203C17.0918 18.6397 19.2188 16.5004 20.4082 15.5438C26.3848 10.7547 28.1191 9.31985 29.4316 8.19526ZM15 16.5456C16.3594 16.5715 18.3164 14.6584 19.3008 13.8699C27.0762 7.64589 27.668 7.10299 29.4609 5.55184C29.8008 5.26099 30 4.80857 30 4.3303V3.10231C30 1.38957 28.7402 0 27.1875 0H2.8125C1.25977 0 0 1.38957 0 3.10231V4.3303C0 4.80857 0.199219 5.25453 0.539062 5.55184C2.33203 7.09653 2.92383 7.64589 10.6992 13.8699C11.6836 14.6584 13.6406 16.5715 15 16.5456Z" fill="#FAFAFA"/>
</svg>
