<svg width="25" height="41" viewBox="0 0 25 41" fill="none" xmlns="http://www.w3.org/2000/svg">
<path d="M21.25 0.564209H3.75C1.67969 0.564209 0 2.2317 0 4.28698V36.551C0 38.6062 1.67969 40.2737 3.75 40.2737H21.25C23.3203 40.2737 25 38.6062 25 36.551V4.28698C25 2.2317 23.3203 0.564209 21.25 0.564209ZM12.5 37.7919C11.1172 37.7919 10 36.6828 10 35.31C10 33.9373 11.1172 32.8282 12.5 32.8282C13.8828 32.8282 15 33.9373 15 35.31C15 36.6828 13.8828 37.7919 12.5 37.7919ZM21.25 29.4157C21.25 29.9275 20.8281 30.3463 20.3125 30.3463H4.6875C4.17188 30.3463 3.75 29.9275 3.75 29.4157V5.21767C3.75 4.70579 4.17188 4.28698 4.6875 4.28698H20.3125C20.8281 4.28698 21.25 4.70579 21.25 5.21767V29.4157Z" fill="#FAFAFA"/>
</svg>
