<svg width="47" height="52" viewBox="0 0 47 52" fill="none" xmlns="http://www.w3.org/2000/svg">
<path d="M11.0537 40.3871C10.672 40.2993 10.3667 40.2115 9.98506 40.0358C9.60341 39.8601 9.29809 39.7723 8.99278 39.5966C8.30582 39.2452 7.69518 38.806 7.08455 38.279C5.86328 37.3127 4.87101 35.9951 4.10772 34.414C3.34442 32.9207 2.88645 31.1639 2.81012 29.495C2.73379 28.6166 2.81012 27.826 2.88645 26.9476C2.96278 26.5084 3.03911 26.157 3.11544 25.7178C3.19177 25.2786 3.34442 24.9273 3.42075 24.4881L3.49708 25.7178C3.49708 26.157 3.57341 26.5084 3.64974 26.9476C3.72607 27.7381 3.87873 28.5287 4.03139 29.2314C4.3367 30.7247 4.79468 32.1302 5.48164 33.4478C6.1686 34.7654 6.93189 35.9951 7.92417 37.1371C8.38215 37.6641 8.91645 38.1911 9.45075 38.7182C9.67974 38.9817 9.98506 39.2452 10.2904 39.5087L11.0537 40.3871ZM10.8247 43.5494C10.5957 43.7251 10.2904 43.8129 9.98506 43.9008C9.67974 43.9886 9.45075 44.0764 9.14544 44.0764C8.61113 44.1643 8.0005 44.2521 7.38987 44.1643C6.24493 44.0764 5.02366 43.7251 4.03139 43.1102C2.96278 42.4953 2.04683 41.5291 1.4362 40.3871C1.13088 39.8601 0.825564 39.2452 0.596576 38.6303C0.520247 38.3668 0.443918 38.0155 0.367589 37.6641C0.367589 37.4006 0.29126 37.1371 0.29126 36.7857C0.520247 37.0492 0.672905 37.3127 0.825564 37.4884C1.05455 37.7519 1.20721 38.0155 1.35987 38.1911C1.74151 38.6303 2.04683 39.0695 2.42848 39.4209C3.19177 40.2115 3.95506 40.9142 4.87101 41.4412C5.71063 41.9683 6.70291 42.4075 7.61885 42.7588C8.07683 42.9345 8.61113 43.0224 9.14544 43.198C9.37442 43.2859 9.67974 43.2859 9.90873 43.3737C10.2904 43.4616 10.5194 43.4616 10.8247 43.5494ZM28.0751 0.859021C28.4567 0.946861 28.762 1.12254 29.1437 1.29822C29.5253 1.4739 29.8306 1.64958 30.1359 1.82526C30.8229 2.26447 31.4335 2.70367 32.0442 3.23071C33.2654 4.28479 34.2577 5.69024 34.9447 7.27136C35.6316 8.85249 36.0133 10.6093 36.0133 12.2783C36.0133 13.1567 35.937 13.9472 35.7843 14.8256C35.708 15.2648 35.6316 15.6162 35.479 16.0554C35.3263 16.4946 35.25 16.846 35.0973 17.1973L35.021 15.9676C35.021 15.5283 35.021 15.177 34.9447 14.7378L34.7157 12.3661C34.4867 10.8728 34.0287 9.37953 33.4181 7.97408C32.8075 6.56864 32.0442 5.33888 31.1282 4.19695C30.6702 3.58207 30.1359 3.05503 29.678 2.44015C29.449 2.17663 29.1437 1.9131 28.8383 1.64958L28.0751 0.859021ZM34.7157 0.50766C35.021 0.5955 35.25 0.683341 35.479 0.859021C35.708 0.946861 36.0133 1.12254 36.2423 1.29822C36.7002 1.64958 37.1582 2.00094 37.6162 2.44015C38.4558 3.31855 39.1428 4.37263 39.5244 5.6024C39.9824 6.83216 40.1351 8.14977 39.9824 9.46737C39.9061 10.0823 39.7534 10.6971 39.6008 11.312C39.5244 11.5755 39.3718 11.9269 39.2954 12.1904C39.1428 12.4539 39.0664 12.7175 38.8375 12.981V12.1026V11.2242C38.8375 10.6093 38.7611 10.0822 38.7611 9.55521C38.6085 8.41328 38.4558 7.3592 38.0742 6.39296C37.6925 5.33888 37.2346 4.46047 36.7002 3.49423C36.3949 3.05503 36.0896 2.52799 35.7843 2.08879C35.6316 1.82526 35.479 1.64958 35.25 1.38606C35.0973 0.946861 34.8683 0.68334 34.7157 0.50766Z" fill="#42ADE2"/>
<path d="M6.39756 13.5959C4.87098 14.3864 4.33667 16.4946 5.02363 18.2514L14.6411 41.3534L19.9841 38.4547L10.3667 15.2648C9.67971 13.508 7.92414 12.7175 6.39756 13.5959ZM31.6625 31.9545L37.3108 28.8801L26.3195 2.528C25.5562 0.771195 23.7243 -0.0193673 22.1214 0.859036C20.5948 1.73744 19.9078 3.84561 20.6711 5.69025L31.6625 31.9545Z" fill="#FFDD67"/>
<path d="M22.1977 0.771201C22.0451 0.859042 21.8924 0.946882 21.7397 1.12256C23.19 0.683361 24.7166 1.47392 25.4035 3.05505L36.3949 29.4071L37.3872 28.8801L26.3958 2.52801C25.6325 0.683361 23.8006 -0.107202 22.1977 0.771201Z" fill="#EBA352"/>
<path d="M19.9841 38.3668L25.8614 35.1168L14.6411 8.23763C13.8778 6.39298 11.8932 5.51458 10.2903 6.39298C8.6874 7.27138 8.00044 9.55523 8.76373 11.3999L19.9841 38.3668Z" fill="#FFDD67"/>
<path d="M10.2905 6.48081C10.1378 6.56865 9.98518 6.65649 9.83252 6.83217C11.2828 6.39297 12.962 7.18353 13.649 8.85249L20.5949 25.63L22.2742 26.7719L14.6413 8.32545C13.878 6.39297 11.9697 5.6024 10.2905 6.48081Z" fill="#EBA352"/>
<path d="M24.9453 33.0086L30.8226 29.7585L19.6022 2.87937C18.839 1.03472 16.8544 0.156319 15.2515 1.12256C13.6486 2.00097 12.9616 4.28481 13.7249 6.12946L24.9453 33.0086Z" fill="#FFDD67"/>
<path d="M15.2516 1.03473C15.0989 1.12257 14.9463 1.29825 14.7936 1.38609C16.2439 0.946891 17.9231 1.73745 18.6101 3.40642L26.472 22.3799L28.1512 23.5218L19.6024 2.87938C18.8391 0.946891 16.8545 0.156328 15.2516 1.03473ZM6.39743 13.5959C6.24477 13.6837 6.09211 13.7716 5.93945 13.9473C7.31338 13.5081 8.76363 14.2986 9.37426 15.8797L15.0989 29.6707L16.7782 30.8126L10.3665 15.3527C9.67958 13.5081 7.92401 12.7175 6.39743 13.5959Z" fill="#EBA352"/>
<path d="M45.1724 10.9607C43.1115 9.11602 39.7531 11.1363 38.0738 17.4608C36.9289 21.8529 36.7762 23.1705 34.3337 24.4881L32.9598 21.238C32.9598 21.238 11.2823 33.2721 12.1219 35.2046C12.1219 35.2046 14.7171 44.5156 19.1442 48.8198C25.7085 55.32 41.0507 48.3806 41.7376 31.6031C42.1193 21.8529 47.386 12.981 45.1724 10.9607Z" fill="#FFDD67"/>
<path d="M45.1729 10.9607C44.7913 10.6093 44.3333 10.4336 43.8753 10.3458C43.9516 10.4336 44.1043 10.4336 44.1806 10.5215C46.4705 12.5418 44.1043 17.1973 42.8067 21.4137C41.7381 24.7516 40.8222 28.1774 40.9748 31.5153C41.5854 46.0968 28.8385 53.0362 21.2056 50.401C28.6858 54.0024 42.5777 47.1509 41.9671 31.9545C41.8144 28.6166 42.6541 25.3665 43.799 21.8529C45.0203 17.6365 47.3865 12.981 45.1729 10.9607Z" fill="#EBA352"/>
<path d="M35.0211 24.1367C30.2887 24.7516 23.3427 32.5694 28.2278 41.0899C24.6403 32.4815 30.5177 26.6841 34.2578 24.6638C34.6395 24.3124 35.0211 24.1367 35.0211 24.1367Z" fill="#EBA352"/>
</svg>
