<svg width="30" height="30" viewBox="0 0 30 30" fill="none" xmlns="http://www.w3.org/2000/svg">
<path d="M20.2821 11.2755H9.71706C9.71706 11.2755 5.31494 16.3822 5.31494 19.7866C5.31494 23.1911 14.9996 29.1489 14.9996 29.1489C14.9996 29.1489 24.6843 23.1911 24.6843 19.7866C24.6843 16.3822 20.2821 11.2755 20.2821 11.2755Z" fill="#31373D"/>
<path d="M16.4435 0.449387C15.6502 -0.149796 14.3507 -0.149796 13.5574 0.449387L0.594946 10.2338C-0.198315 10.833 -0.198315 11.8134 0.594946 12.4126L13.5565 22.1961C14.3507 22.7953 15.6493 22.7953 16.4426 22.1961L29.4042 12.4126C30.1983 11.8134 30.1983 10.833 29.4042 10.2338L16.4435 0.449387Z" fill="#292F33"/>
<path d="M16.4435 0.449387C15.6502 -0.149796 14.3507 -0.149796 13.5574 0.449387L0.594946 10.2338C-0.198315 10.833 -0.198315 11.8134 0.594946 12.4126L13.5565 22.1961C14.3498 22.7953 15.6493 22.7953 16.4426 22.1961L29.4051 12.4126C30.1983 11.8134 30.1983 10.833 29.4051 10.2338L16.4435 0.449387Z" fill="#394146"/>
<path d="M6.19542 20.6378C6.19542 20.6378 4.43457 22.34 4.43457 23.1911V28.2978C4.43457 28.2978 4.43457 30 6.19542 30C7.95627 30 7.95627 28.2978 7.95627 28.2978V23.1911C7.95627 22.34 6.19542 20.6378 6.19542 20.6378Z" fill="#FCAB40"/>
<path d="M6.19523 24.0423C7.65396 24.0423 8.8365 22.8991 8.8365 21.4889C8.8365 20.0788 7.65396 18.9356 6.19523 18.9356C4.73649 18.9356 3.55396 20.0788 3.55396 21.4889C3.55396 22.8991 4.73649 24.0423 6.19523 24.0423Z" fill="#FDD888"/>
<path d="M6.19626 22.3399C5.71027 22.3399 5.31584 21.9595 5.31584 21.4888V18.1201C5.27886 17.5805 5.48048 16.3873 6.47536 15.6655L14.4185 8.93323C14.7848 8.62258 15.3412 8.65832 15.6608 9.01239C15.9813 9.3656 15.9443 9.9035 15.5789 10.2133L7.58469 16.9865C7.05291 17.3746 7.0758 18.0691 7.0758 18.0759L7.07757 21.4888C7.07757 21.9595 6.68314 22.3399 6.19626 22.3399Z" fill="#FCAB40"/>
<path d="M14.9994 12.9778C16.4582 12.9778 17.6407 11.8346 17.6407 10.4244C17.6407 9.01426 16.4582 7.87109 14.9994 7.87109C13.5407 7.87109 12.3582 9.01426 12.3582 10.4244C12.3582 11.8346 13.5407 12.9778 14.9994 12.9778Z" fill="#31373D"/>
</svg>
