<svg width="26" height="23" viewBox="0 0 26 23" fill="none" xmlns="http://www.w3.org/2000/svg">
<path d="M12.814 22.5333C12.7464 22.5333 12.521 22.4118 12.1378 22.1687L8.31729 13.5273C7.52839 11.8744 6.73949 9.72312 5.95058 7.07357H5.64629L5.98439 17.6839V18.9965L8.28348 19.8352V22.1687H0V20.0904L2.06242 19.2518V2.91694L0 2.07832V0H7.84395L12.2393 10.1364C12.7352 11.2302 13.3437 13.0533 14.065 15.6056H14.3693L14.065 4.3754V3.17217L11.7659 2.33355V0H20.0156V2.07832L17.9532 2.91694V21.9499C17.277 22.0229 16.3866 22.1201 15.2822 22.2416C14.1777 22.3875 13.355 22.4847 12.814 22.5333Z" fill="#1A1A1A"/>
<path d="M22.4837 22.351C22.3485 22.351 22.1006 22.1566 21.7399 21.7676C21.3793 21.3787 21.199 21.0749 21.199 20.8561L21.0975 17.8298C21.6385 17.6839 22.2809 17.5502 23.0247 17.4287C23.7911 17.2828 24.3433 17.2099 24.6814 17.2099C24.8166 17.2099 25.0646 17.4287 25.4252 17.8662C25.8084 18.2795 26 18.5712 26 18.7413L25.7295 21.877C25.3013 21.9743 24.7378 22.0715 24.039 22.1687C23.3628 22.2659 22.8444 22.3267 22.4837 22.351Z" fill="#9B0F63"/>
</svg>
