<svg width="30" height="30" viewBox="0 0 30 30" fill="none" xmlns="http://www.w3.org/2000/svg">
<path d="M22.509 0.0125732C23.5364 0.0125732 24.5042 0.208274 25.4122 0.599676C26.3202 0.991078 27.1147 1.52481 27.7957 2.20087C28.4767 2.87692 29.0143 3.66566 29.4086 4.56707C29.8029 5.46848 30 6.42919 30 7.44921V22.3225C30 23.3425 29.8029 24.3092 29.4086 25.2224C29.0143 26.1357 28.4767 26.9304 27.7957 27.6064C27.1147 28.2825 26.3202 28.8162 25.4122 29.2076C24.5042 29.599 23.5364 29.7947 22.509 29.7947H7.49104C6.46356 29.7947 5.49582 29.599 4.58781 29.2076C3.67981 28.8162 2.8853 28.2825 2.2043 27.6064C1.5233 26.9304 0.985663 26.1357 0.591398 25.2224C0.197133 24.3092 0 23.3425 0 22.3225V7.44921C0 6.42919 0.197133 5.46848 0.591398 4.56707C0.985663 3.66566 1.5233 2.87692 2.2043 2.20087C2.8853 1.52481 3.67981 0.991078 4.58781 0.599676C5.49582 0.208274 6.46356 0.0125732 7.49104 0.0125732H22.509ZM10.3226 11.1853H6.55914V23.2832H10.3226V11.1853ZM8.45878 10.2246C8.96057 10.2246 9.39666 10.0467 9.76703 9.69088C10.1374 9.33506 10.3226 8.89621 10.3226 8.37434C10.3226 7.85248 10.1374 7.41363 9.76703 7.05781C9.39666 6.70199 8.96057 6.52408 8.45878 6.52408C7.93309 6.52408 7.48507 6.70199 7.1147 7.05781C6.74433 7.41363 6.55914 7.85248 6.55914 8.37434C6.55914 8.89621 6.74433 9.33506 7.1147 9.69088C7.48507 10.0467 7.93309 10.2246 8.45878 10.2246ZM23.4409 16.2736C23.4409 15.4196 23.2019 14.5834 22.724 13.765C22.2461 12.9466 21.6249 12.3239 20.8602 11.897C20.1673 11.5174 19.3608 11.3158 18.4409 11.2921C17.5209 11.2683 16.6906 11.4225 15.9498 11.7546V11.1853H12.1864V23.2832H15.9498V15.8821L17.491 15.1349C17.6822 15.04 17.945 14.9926 18.2796 14.9926C18.6141 14.9926 18.865 15.0519 19.0323 15.1705C19.1756 15.2417 19.319 15.3959 19.4624 15.6331C19.6057 15.8703 19.6774 16.0838 19.6774 16.2736V23.2832H23.4409V16.2736Z" fill="#FAFAFA"/>
</svg>
