<svg width="130" height="30" viewBox="0 0 130 30" fill="none" xmlns="http://www.w3.org/2000/svg">
<path d="M13.2089 29.8663C13.1392 29.8663 12.9068 29.7177 12.5119 29.4205L8.57358 18.8559C7.76037 16.8351 6.94716 14.2051 6.13395 10.9658H5.82028L6.1688 23.9376V25.5423L8.53873 26.5676V29.4205H0V26.8796L2.12597 25.8544V5.8841L0 4.85884V2.31798H8.08566L12.6164 14.7103C13.1276 16.0475 13.7549 18.2764 14.4984 21.3967H14.8121L14.4984 7.66716V6.19614L12.1285 5.17088V2.31798H20.6324V4.85884L18.5064 5.8841V29.153C17.8094 29.2422 16.8916 29.3611 15.7531 29.5097C14.6146 29.688 13.7665 29.8068 13.2089 29.8663Z" fill="#FAFAFA"/>
<path d="M28.812 29.9108C26.9997 29.9108 25.5591 29.0639 24.4903 27.37C23.4215 25.6464 22.8871 23.2541 22.8871 20.1932C22.8871 18.8856 22.9684 17.5929 23.1311 16.315C23.317 15.0371 23.5261 14.0416 23.7584 13.3284C24.1999 12.6152 25.199 11.6493 26.7557 10.4309C28.3124 9.18276 29.3347 8.55869 29.8227 8.55869C30.055 8.55869 31.0541 8.737 32.8199 9.09361C34.609 9.45022 35.8985 9.70282 36.6885 9.85141V25.899L38.0826 26.5676V29.0193C35.248 29.6137 33.6796 29.9108 33.3776 29.9108C33.2614 29.9108 33.0058 29.6731 32.6108 29.1976C32.2391 28.6924 32.0532 28.3655 32.0532 28.2169V26.9242C30.0782 28.9153 28.9978 29.9108 28.812 29.9108ZM29.6484 25.5423C29.7878 25.5423 30.5313 25.1114 31.8789 24.2496V12.9272C31.4142 12.6003 30.9147 12.3031 30.3803 12.0357C29.8459 11.7385 29.4393 11.5899 29.1605 11.5899C28.7887 11.5899 28.4983 12.2288 28.2892 13.5067C28.1033 14.7845 28.0104 16.8499 28.0104 19.7028C28.0104 21.3967 28.173 22.7935 28.4983 23.893C28.8468 24.9926 29.2302 25.5423 29.6484 25.5423Z" fill="#FAFAFA"/>
<path d="M44.6494 29.9108C44.3939 29.9108 44.0337 29.6582 43.569 29.153C43.1276 28.6478 42.7326 28.0832 42.3841 27.4591C42.0356 26.8053 41.8613 26.2704 41.8613 25.8544V12.3031H39.4217V10.0297L41.8613 8.78157L44.8934 4.23477C45.1025 4.14562 45.695 4.3685 46.6709 4.90342V9.09361H50.1909V12.4368H46.6709V23.9822C46.6709 24.6657 46.7289 25.1412 46.8451 25.4086C46.9845 25.6761 47.1936 25.8098 47.4725 25.8098L50.5394 26.0327V29.0639C49.4242 29.2719 48.2276 29.4651 46.9497 29.6434C45.695 29.8217 44.9283 29.9108 44.6494 29.9108Z" fill="#FAFAFA"/>
<path d="M54.9003 29.9108C54.7609 29.9108 54.4704 29.6731 54.029 29.1976C53.5875 28.6924 53.3668 28.3507 53.3668 28.1724V4.14562L51.9727 3.47697V1.02526C54.9235 0.430907 56.5616 0.13373 56.8868 0.13373C57.003 0.13373 57.247 0.38633 57.6187 0.89153C57.9905 1.36701 58.1764 1.69391 58.1764 1.87221L57.9324 11.367L58.1764 11.4116C58.8037 10.7875 59.4659 10.1634 60.1629 9.53938C60.86 8.9153 61.2666 8.60327 61.3827 8.60327C63.1718 8.60327 64.5078 9.10847 65.3907 10.1189C66.2736 11.1293 66.7151 12.8975 66.7151 15.4235V25.8544L68.1092 26.523V28.9747C65.2746 29.5988 63.7294 29.9108 63.4739 29.9108C63.3345 29.9108 63.0324 29.6731 62.5677 29.1976C62.1263 28.6924 61.9055 28.3507 61.9055 28.1724V15.4681C61.9055 13.8039 61.4292 12.9718 60.4766 12.9718C60.3604 12.9718 60.0351 13.1204 59.5007 13.4175C58.9896 13.685 58.5481 13.9376 58.1764 14.1753V25.8544L59.5704 26.523V28.9747C56.7591 29.5988 55.2023 29.9108 54.9003 29.9108Z" fill="#FAFAFA"/>
<path d="M76.374 29.9108C74.5617 29.9108 73.1211 29.0639 72.0524 27.37C70.9836 25.6464 70.4492 23.2541 70.4492 20.1932C70.4492 18.8856 70.5305 17.5929 70.6931 16.315C70.879 15.0371 71.0881 14.0416 71.3205 13.3284C71.7619 12.6152 72.761 11.6493 74.3177 10.4309C75.8744 9.18276 76.8968 8.55869 77.3847 8.55869C77.617 8.55869 78.6161 8.737 80.382 9.09361C82.171 9.45022 83.4606 9.70282 84.2505 9.85141V25.899L85.6446 26.5676V29.0193C82.81 29.6137 81.2417 29.9108 80.9396 29.9108C80.8234 29.9108 80.5678 29.6731 80.1729 29.1976C79.8011 28.6924 79.6152 28.3655 79.6152 28.2169V26.9242C77.6403 28.9153 76.5599 29.9108 76.374 29.9108ZM77.2104 25.5423C77.3498 25.5423 78.0934 25.1114 79.441 24.2496V12.9272C78.9763 12.6003 78.4767 12.3031 77.9423 12.0357C77.4079 11.7385 77.0013 11.5899 76.7225 11.5899C76.3508 11.5899 76.0603 12.2288 75.8512 13.5067C75.6653 14.7845 75.5724 16.8499 75.5724 19.7028C75.5724 21.3967 75.735 22.7935 76.0603 23.893C76.4088 24.9926 76.7922 25.5423 77.2104 25.5423Z" fill="#FAFAFA"/>
<path d="M90.3643 29.9108C90.2249 29.9108 89.9345 29.6731 89.493 29.1976C89.0516 28.6924 88.8308 28.3507 88.8308 28.1724V4.14562L87.4019 3.47697V1.02526C90.376 0.430907 92.014 0.13373 92.316 0.13373C92.4322 0.13373 92.6762 0.38633 93.0479 0.89153C93.4197 1.36701 93.6056 1.69391 93.6056 1.87221V25.8544L94.9996 26.523V28.9747C92.1882 29.5988 90.6431 29.9108 90.3643 29.9108Z" fill="#FAFAFA"/>
<path d="M100.089 29.9108C99.9494 29.9108 99.6358 29.6582 99.1478 29.153C98.6831 28.6181 98.4508 28.2615 98.4508 28.0832V12.526L97.0567 11.9019V9.45022C99.9611 8.88559 101.564 8.60327 101.866 8.60327C101.982 8.60327 102.238 8.85587 102.633 9.36107C103.051 9.86627 103.26 10.208 103.26 10.3863V25.9435L104.654 26.523V28.9747C101.913 29.5988 100.391 29.9108 100.089 29.9108ZM98.172 0.267458L102.18 0L102.912 1.15899L102.598 5.48291H98.4856L98.172 0.267458Z" fill="#FAFAFA"/>
<path d="M112.943 29.9108C111.13 29.9108 109.69 29.0639 108.621 27.37C107.552 25.6464 107.018 23.2541 107.018 20.1932C107.018 18.8856 107.099 17.5929 107.262 16.315C107.448 15.0371 107.657 14.0416 107.889 13.3284C108.331 12.6152 109.33 11.6493 110.886 10.4309C112.443 9.18276 113.465 8.55869 113.953 8.55869C114.186 8.55869 115.185 8.737 116.951 9.09361C118.74 9.45022 120.029 9.70282 120.819 9.85141V25.899L122.213 26.5676V29.0193C119.379 29.6137 117.81 29.9108 117.508 29.9108C117.392 29.9108 117.137 29.6731 116.742 29.1976C116.37 28.6924 116.184 28.3655 116.184 28.2169V26.9242C114.209 28.9153 113.129 29.9108 112.943 29.9108ZM113.779 25.5423C113.919 25.5423 114.662 25.1114 116.01 24.2496V12.9272C115.545 12.6003 115.045 12.3031 114.511 12.0357C113.977 11.7385 113.57 11.5899 113.291 11.5899C112.919 11.5899 112.629 12.2288 112.42 13.5067C112.234 14.7845 112.141 16.8499 112.141 19.7028C112.141 21.3967 112.304 22.7935 112.629 23.893C112.978 24.9926 113.361 25.5423 113.779 25.5423Z" fill="#FAFAFA"/>
<path d="M126.375 30C126.236 30 125.98 29.7623 125.609 29.2868C125.237 28.8113 125.051 28.4398 125.051 28.1724L124.946 24.4725C125.504 24.2942 126.166 24.1308 126.933 23.9822C127.723 23.8039 128.292 23.7147 128.641 23.7147C128.78 23.7147 129.036 23.9822 129.408 24.5171C129.803 25.0223 130 25.3789 130 25.5869L129.721 29.4205C129.28 29.5394 128.699 29.6582 127.979 29.7771C127.282 29.896 126.747 29.9703 126.375 30Z" fill="#9B0F63"/>
</svg>
