<svg width="26" height="26" viewBox="0 0 26 26" fill="none" xmlns="http://www.w3.org/2000/svg">
<path d="M19.0694 15.613C18.8081 15.4831 17.1102 14.7041 16.8489 14.5743C16.5877 14.4444 16.3265 14.4444 16.0653 14.7041C15.8041 14.9638 15.2816 15.7428 15.0204 16.0025C14.8898 16.2622 14.6285 16.2622 14.3673 16.1323C13.453 15.7428 12.5388 15.2235 11.7551 14.5743C11.102 13.9251 10.449 13.1461 9.92651 12.367C9.7959 12.1074 9.92651 11.8477 10.0571 11.7179C10.1877 11.588 10.3183 11.3283 10.5796 11.1985C10.7102 11.0687 10.8408 10.809 10.8408 10.6792C10.9714 10.5493 10.9714 10.2896 10.8408 10.1598C10.7102 10.03 10.0571 8.47191 9.7959 7.82272C9.66529 6.91386 9.40406 6.91386 9.14284 6.91386H8.48978C8.22856 6.91386 7.83672 7.17353 7.70611 7.30337C6.92244 8.0824 6.5306 8.99126 6.5306 10.03C6.66121 11.1985 7.05305 12.367 7.83672 13.4057C9.27345 15.4831 11.102 17.171 13.3224 18.2097C13.9755 18.4694 14.4979 18.7291 15.151 18.8589C15.8041 19.1186 16.4571 19.1186 17.2408 18.9888C18.1551 18.8589 18.9387 18.2097 19.4612 17.4307C19.7224 16.9114 19.7224 16.392 19.5918 15.8727L19.0694 15.613ZM22.3347 3.79775C17.2408 -1.26592 9.01223 -1.26592 3.91836 3.79775C-0.261224 7.95256 -1.0449 14.3146 1.82857 19.3783L0 26L6.92244 24.1823C8.88162 25.221 10.9714 25.7403 13.0612 25.7403C20.2449 25.7403 25.9918 20.0275 25.9918 12.8864C26.1224 9.51061 24.6857 6.26467 22.3347 3.79775ZM18.8081 21.975C17.1102 23.0137 15.151 23.6629 13.0612 23.6629C11.102 23.6629 9.27345 23.1436 7.5755 22.2347L7.18366 21.975L3.13469 23.0137L4.17958 19.1186L3.91836 18.7291C0.783672 13.5356 2.35102 7.0437 7.44488 3.79775C12.5388 0.55181 19.0694 2.2397 22.204 7.17353C25.3387 12.2372 23.902 18.8589 18.8081 21.975Z" fill="white"/>
</svg>
