<svg width="34" height="32" viewBox="0 0 34 32" fill="none" xmlns="http://www.w3.org/2000/svg">
<path d="M28.3333 0H5C3.67392 0 2.40215 0.523352 1.46447 1.45492C0.526784 2.38649 0 3.64998 0 4.96742V29.8045C0.000508928 30.0979 0.0794813 30.3859 0.228834 30.639C0.378187 30.8921 0.592556 31.1013 0.85 31.2451C1.09909 31.3853 1.38035 31.4594 1.66667 31.4603C1.96581 31.4602 2.25941 31.3802 2.51667 31.2285L10 26.7247C10.2766 26.5611 10.595 26.4806 10.9167 26.4929H28.3333C29.6594 26.4929 30.9312 25.9695 31.8689 25.038C32.8065 24.1064 33.3333 22.8429 33.3333 21.5255V4.96742C33.3333 3.64998 32.8065 2.38649 31.8689 1.45492C30.9312 0.523352 29.6594 0 28.3333 0ZM10 14.9023C9.67036 14.9023 9.34813 14.8051 9.07405 14.6232C8.79997 14.4413 8.58635 14.1827 8.4602 13.8801C8.33405 13.5775 8.30105 13.2446 8.36536 12.9234C8.42967 12.6022 8.5884 12.3072 8.82149 12.0756C9.05458 11.844 9.35155 11.6863 9.67485 11.6225C9.99815 11.5586 10.3333 11.5914 10.6378 11.7167C10.9423 11.842 11.2026 12.0542 11.3858 12.3265C11.5689 12.5988 11.6667 12.919 11.6667 13.2464C11.6667 13.6856 11.4911 14.1068 11.1785 14.4173C10.8659 14.7278 10.442 14.9023 10 14.9023ZM16.6667 14.9023C16.337 14.9023 16.0148 14.8051 15.7407 14.6232C15.4666 14.4413 15.253 14.1827 15.1269 13.8801C15.0007 13.5775 14.9677 13.2446 15.032 12.9234C15.0963 12.6022 15.2551 12.3072 15.4882 12.0756C15.7212 11.844 16.0182 11.6863 16.3415 11.6225C16.6648 11.5586 16.9999 11.5914 17.3045 11.7167C17.609 11.842 17.8693 12.0542 18.0524 12.3265C18.2356 12.5988 18.3333 12.919 18.3333 13.2464C18.3333 13.6856 18.1577 14.1068 17.8452 14.4173C17.5326 14.7278 17.1087 14.9023 16.6667 14.9023ZM23.3333 14.9023C23.0037 14.9023 22.6815 14.8051 22.4074 14.6232C22.1333 14.4413 21.9197 14.1827 21.7935 13.8801C21.6674 13.5775 21.6344 13.2446 21.6987 12.9234C21.763 12.6022 21.9217 12.3072 22.1548 12.0756C22.3879 11.844 22.6849 11.6863 23.0082 11.6225C23.3315 11.5586 23.6666 11.5914 23.9711 11.7167C24.2757 11.842 24.536 12.0542 24.7191 12.3265C24.9023 12.5988 25 12.919 25 13.2464C25 13.6856 24.8244 14.1068 24.5118 14.4173C24.1993 14.7278 23.7754 14.9023 23.3333 14.9023Z" fill="white"/>
</svg>
